<svg width="700" height="700" fill="none" xmlns="http://www.w3.org/2000/svg"><path d="M350 700c193.3 0 350-156.7 350-350S543.3 0 350 0 0 156.7 0 350s156.7 350 350 350z" fill="#E1472B"/><path d="M442 113c-77.196 0-140 62.804-140 140 0 4.537.225 9.022.649 13.449-11.158-7.186-24.419-11.375-38.649-11.375-39.48 0-71.6 32.12-71.6 71.6v40.993c0 20.258 8.47 38.563 22.038 51.6H203.59c-49.4 0-89.59 40.19-89.59 89.59V571c0 5.523 4.477 10 10 10h280c5.523 0 10-4.477 10-10v-62.143c0-49.4-40.19-89.59-89.59-89.59h-10.848c13.568-13.037 22.038-31.342 22.038-51.6v-23.784C361.298 373.924 399.461 393 442 393c77.196 0 140-62.804 140-140s-62.804-140-140-140zM212.4 329.397v-2.723c0-28.453 23.148-51.6 51.6-51.6 27.551 0 50.128 21.707 51.531 48.915l-26.074-15.318a9.996 9.996 0 0 0-12.73 2.199 57.544 57.544 0 0 1-44.209 20.632H212.4v-2.105zm101.863 163.941a9.998 9.998 0 0 0 10-10v-41.773c0-.792-.102-1.559-.276-2.297h.423c38.372 0 69.59 31.218 69.59 69.59V561H134v-52.143c0-38.372 31.218-69.59 69.59-69.59h.147v44.071a10 10 0 0 0 15.411 8.41L254 469.325v21.713c0 5.523 4.477 10 10 10s10-4.477 10-10v-21.713l34.852 22.423a9.99 9.99 0 0 0 5.411 1.59zm-90.526-28.325v-25.746h80.801a9.995 9.995 0 0 0-.276 2.297v23.449L269.41 442.59a10 10 0 0 0-10.821 0l-34.852 22.423zm91.863-97.346c0 28.453-23.148 51.6-51.6 51.6s-51.6-23.147-51.6-51.6v-16.164h20.119c20.168 0 39.311-7.762 53.695-21.542l29.386 17.265v20.441zM442 373c-66.168 0-120-53.832-120-120s53.832-120 120-120 120 53.832 120 120-53.832 120-120 120z" fill="#fff"/><path d="M271.07 520.43a10.076 10.076 0 0 0-7.07-2.93c-2.63 0-5.21 1.07-7.07 2.93a10.076 10.076 0 0 0-2.93 7.07c0 2.63 1.07 5.21 2.93 7.07 1.86 1.86 4.44 2.93 7.07 2.93s5.21-1.07 7.07-2.93c1.86-1.86 2.93-4.44 2.93-7.07s-1.07-5.21-2.93-7.07zM363.5 507h-45c-5.523 0-10 4.477-10 10s4.477 10 10 10h45c5.523 0 10-4.477 10-10s-4.477-10-10-10zM442 69c-43.848 0-86.317 15.682-119.585 44.156-32.9 28.159-54.896 67.071-61.934 109.568-.902 5.448 2.783 10.597 8.232 11.5 5.447.896 10.596-2.784 11.5-8.232C293.358 146.613 361.4 89 442 89c90.43 0 164 73.57 164 164s-73.57 164-164 164c-5.523 0-10 4.477-10 10s4.477 10 10 10c101.458 0 184-82.542 184-184S543.458 69 442 69zm-30.875 345.101l-.141-.027c-5.409-1.04-10.63 2.494-11.688 7.902-1.061 5.42 2.486 10.676 7.907 11.736.662.132 1.321.196 1.972.196 4.669 0 8.844-3.287 9.795-8.041 1.083-5.415-2.429-10.683-7.845-11.766z" fill="#fff"/><path d="M495.905 199.259c-3.905-3.906-10.237-3.905-14.143 0l-39.598 39.598-20.845-20.845c-3.905-3.905-10.237-3.905-14.143 0-3.906 3.905-3.905 10.237 0 14.143l27.918 27.916a9.968 9.968 0 0 0 7.071 2.929 9.966 9.966 0 0 0 7.071-2.929l46.669-46.669c3.905-3.905 3.905-10.237 0-14.143zM442 145.084c-5.523 0-10 4.477-10 10v7.084c0 5.523 4.477 10 10 10s10-4.477 10-10v-7.084c0-5.523-4.477-10-10-10zm0 188.748c-5.523 0-10 4.477-10 10v7.084c0 5.523 4.477 10 10 10s10-4.477 10-10v-7.084c0-5.523-4.477-10-10-10zM539.916 243h-7.084c-5.523 0-10 4.477-10 10s4.477 10 10 10h7.084c5.523 0 10-4.477 10-10s-4.477-10-10-10zm-188.748 0h-7.084c-5.523 0-10 4.477-10 10s4.477 10 10 10h7.084c5.523 0 10-4.477 10-10s-4.477-10-10-10z" fill="#fff"/></svg>