<svg width="700" height="700" viewBox="0 0 700 700" fill="none" xmlns="http://www.w3.org/2000/svg">
<path d="M350 700C543.3 700 700 543.3 700 350C700 156.7 543.3 0 350 0C156.7 0 0 156.7 0 350C0 543.3 156.7 700 350 700Z" fill="#E1472B"/>
<path d="M442 113C364.804 113 302 175.804 302 253C302 257.537 302.225 262.022 302.649 266.449C291.491 259.263 278.23 255.074 264 255.074C224.52 255.074 192.4 287.194 192.4 326.674V329.398V341.503V367.667C192.4 387.925 200.87 406.23 214.438 419.267H203.59C154.19 419.267 114 459.457 114 508.857V571C114 576.523 118.477 581 124 581H404C409.523 581 414 576.523 414 571V508.857C414 459.457 373.81 419.267 324.41 419.267H313.562C327.13 406.23 335.6 387.925 335.6 367.667V343.883C361.298 373.924 399.461 393 442 393C519.196 393 582 330.196 582 253C582 175.804 519.196 113 442 113ZM212.4 329.397V326.674C212.4 298.221 235.548 275.074 264 275.074C291.551 275.074 314.128 296.781 315.531 323.989L289.457 308.671C285.245 306.195 279.863 307.126 276.727 310.87C265.739 323.982 249.625 331.502 232.518 331.502H212.4V329.397ZM314.263 493.338C315.908 493.338 317.556 492.933 319.053 492.116C322.265 490.364 324.263 486.997 324.263 483.338V441.565C324.263 440.773 324.161 440.006 323.987 439.268H324.41C362.782 439.268 394 470.486 394 508.858V561H134V508.857C134 470.485 165.218 439.267 203.59 439.267H203.737V483.338C203.737 486.997 205.735 490.363 208.947 492.116C212.158 493.869 216.072 493.728 219.148 491.748L254 469.325V491.038C254 496.561 258.477 501.038 264 501.038C269.523 501.038 274 496.561 274 491.038V469.325L308.852 491.748C310.496 492.806 312.377 493.338 314.263 493.338ZM223.737 465.013V439.267H304.538C304.364 440.006 304.262 440.772 304.262 441.564V465.013L269.41 442.59C266.114 440.47 261.885 440.47 258.589 442.59L223.737 465.013ZM315.6 367.667C315.6 396.12 292.452 419.267 264 419.267C235.548 419.267 212.4 396.12 212.4 367.667V351.503H232.519C252.687 351.503 271.83 343.741 286.214 329.961L315.6 347.226V367.667ZM442 373C375.832 373 322 319.168 322 253C322 186.832 375.832 133 442 133C508.168 133 562 186.832 562 253C562 319.168 508.168 373 442 373Z" fill="white"/>
<path d="M271.07 520.43C269.21 518.57 266.63 517.5 264 517.5C261.37 517.5 258.79 518.57 256.93 520.43C255.07 522.29 254 524.87 254 527.5C254 530.13 255.07 532.71 256.93 534.57C258.79 536.43 261.37 537.5 264 537.5C266.63 537.5 269.21 536.43 271.07 534.57C272.93 532.71 274 530.13 274 527.5C274 524.87 272.93 522.29 271.07 520.43Z" fill="white"/>
<path d="M363.5 507H318.5C312.977 507 308.5 511.477 308.5 517C308.5 522.523 312.977 527 318.5 527H363.5C369.023 527 373.5 522.523 373.5 517C373.5 511.477 369.023 507 363.5 507Z" fill="white"/>
<path d="M442 69C398.152 69 355.683 84.682 322.415 113.156C289.515 141.315 267.519 180.227 260.481 222.724C259.579 228.172 263.264 233.321 268.713 234.224C274.16 235.12 279.309 231.44 280.213 225.992C293.358 146.613 361.4 89 442 89C532.43 89 606 162.57 606 253C606 343.43 532.43 417 442 417C436.477 417 432 421.477 432 427C432 432.523 436.477 437 442 437C543.458 437 626 354.458 626 253C626 151.542 543.458 69 442 69Z" fill="white"/>
<path d="M411.125 414.101C411.092 414.094 411.025 414.081 410.984 414.074C405.575 413.034 400.354 416.568 399.296 421.976C398.235 427.396 401.782 432.652 407.203 433.712C407.865 433.844 408.524 433.908 409.175 433.908C413.844 433.908 418.019 430.621 418.97 425.867C420.053 420.452 416.541 415.184 411.125 414.101Z" fill="white"/>
<path d="M495.905 199.259C492 195.353 485.668 195.354 481.762 199.259L442.164 238.857L421.319 218.012C417.414 214.107 411.082 214.107 407.176 218.012C403.27 221.917 403.271 228.249 407.176 232.155L435.094 260.071C437.047 262.024 439.606 263 442.165 263C444.724 263 447.284 262.024 449.236 260.071L495.905 213.402C499.81 209.497 499.81 203.165 495.905 199.259Z" fill="white"/>
<path d="M442 145.084C436.477 145.084 432 149.561 432 155.084V162.168C432 167.691 436.477 172.168 442 172.168C447.523 172.168 452 167.691 452 162.168V155.084C452 149.561 447.523 145.084 442 145.084Z" fill="white"/>
<path d="M442 333.832C436.477 333.832 432 338.309 432 343.832V350.916C432 356.439 436.477 360.916 442 360.916C447.523 360.916 452 356.439 452 350.916V343.832C452 338.309 447.523 333.832 442 333.832Z" fill="white"/>
<path d="M539.916 243H532.832C527.309 243 522.832 247.477 522.832 253C522.832 258.523 527.309 263 532.832 263H539.916C545.439 263 549.916 258.523 549.916 253C549.916 247.477 545.439 243 539.916 243Z" fill="white"/>
<path d="M351.168 243H344.084C338.561 243 334.084 247.477 334.084 253C334.084 258.523 338.561 263 344.084 263H351.168C356.691 263 361.168 258.523 361.168 253C361.168 247.477 356.691 243 351.168 243Z" fill="white"/>
</svg>
